HIERARCHY
ROOT Hips
{
 OFFSET 0.000000 0.000000 0.000000
 CHANNELS 6 Xposition Yposition Zposition Yrotation Xrotation Zrotation
 JOINT Chest
 {
  OFFSET 0.000000 9.588913 -0.003946
  CHANNELS 3 Yrotation Xrotation Zrotation
  JOINT Chest2
  {
   OFFSET 0.000000 9.541882 0.008053
   CHANNELS 3 Yrotation Xrotation Zrotation
   JOINT Chest3
   {
    OFFSET 0.000000 9.501360 0.000000
    CHANNELS 3 Yrotation Xrotation Zrotation
    JOINT Chest4
    {
     OFFSET 0.000000 9.491660 0.000000
     CHANNELS 3 Yrotation Xrotation Zrotation
     JOINT Neck
     {
      OFFSET 0.000000 14.331917 0.000000
      CHANNELS 3 Yrotation Xrotation Zrotation
      JOINT Head
      {
       OFFSET 0.000000 8.884799 0.017034
       CHANNELS 3 Yrotation Xrotation Zrotation
       End Site
       {
        OFFSET 0.000000 16.896195 0.008993
       }
      }
     }
     JOINT RightCollar
     {
      OFFSET -2.923010 9.499495 0.000000
      CHANNELS 3 Yrotation Xrotation Zrotation
      JOINT RightShoulder
      {
       OFFSET -13.795216 0.000000 0.000000
       CHANNELS 3 Yrotation Xrotation Zrotation
       JOINT RightElbow
       {
        OFFSET -30.272209 0.000000 0.000000
        CHANNELS 3 Yrotation Xrotation Zrotation
        JOINT RightWrist
        {
         OFFSET -24.478199 0.000000 0.000000
         CHANNELS 3 Yrotation Xrotation Zrotation
         End Site
         {
          OFFSET -18.090752 0.000000 0.000000
         }
        }
       }
      }
     }
     JOINT LeftCollar
     {
      OFFSET 2.923010 9.499495 0.000000
      CHANNELS 3 Yrotation Xrotation Zrotation
      JOINT LeftShoulder
      {
       OFFSET 13.795216 0.000000 0.000000
       CHANNELS 3 Yrotation Xrotation Zrotation
       JOINT LeftElbow
       {
        OFFSET 30.272209 0.000000 0.000000
        CHANNELS 3 Yrotation Xrotation Zrotation
        JOINT LeftWrist
        {
         OFFSET 24.478199 0.000000 0.000000
         CHANNELS 3 Yrotation Xrotation Zrotation
         End Site
         {
          OFFSET 18.090752 0.000000 0.000000
         }
        }
       }
      }
     }
    }
   }
  }
 }
 JOINT RightHip
 {
  OFFSET -7.826875 0.019532 0.001973
  CHANNELS 3 Yrotation Xrotation Zrotation
  JOINT RightKnee
  {
   OFFSET 0.000000 -40.546152 -0.001885
   CHANNELS 3 Yrotation Xrotation Zrotation
   JOINT RightAnkle
   {
    OFFSET 0.000000 -39.417092 -0.003189
    CHANNELS 3 Yrotation Xrotation Zrotation
    JOINT RightToe
    {
     OFFSET 0.000000 -7.579396 17.243563
     CHANNELS 3 Yrotation Xrotation Zrotation
     End Site
     {
      OFFSET 0.000000 -1.500329 6.694466
     }
    }
   }
  }
 }
 JOINT LeftHip
 {
  OFFSET 7.826875 0.019532 0.001973
  CHANNELS 3 Yrotation Xrotation Zrotation
  JOINT LeftKnee
  {
   OFFSET 0.000000 -40.546152 -0.001885
   CHANNELS 3 Yrotation Xrotation Zrotation
   JOINT LeftAnkle
   {
    OFFSET 0.000000 -39.417092 -0.003189
    CHANNELS 3 Yrotation Xrotation Zrotation
    JOINT LeftToe
    {
     OFFSET 0.000000 -7.579396 17.243563
     CHANNELS 3 Yrotation Xrotation Zrotation
     End Site
     {
      OFFSET 0.000000 -1.500329 6.694466
     }
    }
   }
  }
 }
}
MOTION
Frames: 15
Frame Time: 0.008333
0.000000 87.345680 0.000000 0.000000 -5.767889 0.000000 0.000000 11.653876 0.000000 0.000000 -5.885988 0.000000 0.000000 -0.000000 0.000000 0.000000 -0.000000 0.000000 0.000000 12.528808 0.000000 0.000000 0.711711 0.000000 0.000000 -0.000000 0.000000 0.000000 -0.000000 0.000000 2.309063 -0.000000 0.000000 -2.309063 -0.000000 -0.000000 0.000000 -0.000000 0.000000 0.000000 0.000000 0.000000 -2.309063 0.000000 0.000000 2.309063 -0.000000 0.000000 0.000000 8.520374 0.000000 0.000000 1.905768 0.000000 -0.000000 -4.658254 0.000000 0.000000 -0.000000 0.000000 0.000000 8.520374 0.000000 0.000000 1.905768 0.000000 -0.000000 -4.658254 0.000000 0.000000 -0.000000 0.000000
6.561611 88.852420 -21.599223 -148.318592 -4.010134 1.641866 -3.105012 6.816139 2.835832 -1.826985 3.886556 1.389012 -2.270239 4.864877 1.717784 -1.826985 3.886556 1.389012 4.172632 19.272160 -3.775902 8.784861 0.414926 -8.181220 13.152731 -6.721875 -11.392741 26.811182 -37.776742 39.736005 7.452817 28.038523 -3.939055 17.402254 3.156385 -2.888577 -14.834243 -6.427682 -0.773209 -26.016276 -46.342539 -62.341558 -9.986682 38.723234 8.138743 -9.037149 -0.031689 26.403046 -1.728412 0.462719 -2.011003 0.211749 3.811067 1.632864 -3.314372 -1.129258 -1.443269 -0.070625 0.657434 -0.053743 10.815624 8.638539 4.426596 0.245335 3.260437 0.924111 4.896533 -6.104679 -6.395031 -0.024995 -0.496556 -0.021409
6.593077 88.852473 -21.604049 -148.342119 -3.967913 1.658243 -3.085256 6.831188 2.843628 -1.816893 3.896282 1.389400 -2.257583 4.877000 1.718334 -1.816894 3.896283 1.389400 4.180181 19.293899 -3.773448 8.796003 0.455689 -8.177092 13.150590 -6.700663 -11.426832 26.913099 -37.876563 39.653395 7.340285 27.995756 -4.012748 17.415420 3.163039 -2.913821 -14.861452 -6.421315 -0.751041 -26.065449 -46.452666 -62.267164 -9.937282 38.702299 8.177620 -9.027630 -0.031288 26.402789 -1.716313 0.431311 -2.010019 0.204696 3.766784 1.642432 -3.303487 -1.096597 -1.467207 -0.065609 0.660538 -0.051481 10.824164 8.596965 4.420155 0.254173 3.247008 0.930852 4.902125 -6.078699 -6.413715 -0.025284 -0.500873 -0.023208
6.629022 88.852630 -21.611782 -148.361046 -3.924811 1.676255 -3.068184 6.843500 2.847072 -1.807897 3.904326 1.388224 -2.246318 4.887016 1.716923 -1.807897 3.904326 1.388224 4.186718 19.318296 -3.769739 8.804693 0.501132 -8.170135 13.151296 -6.680010 -11.453150 26.992036 -37.983621 39.590349 7.232966 27.966891 -4.084776 17.427581 3.172022 -2.939601 -14.886171 -6.410843 -0.730058 -26.107275 -46.558618 -62.201641 -9.888709 38.687260 8.221938 -9.022383 -0.025946 26.398557 -1.718736 0.399821 -2.007536 0.200388 3.721165 1.650677 -3.284207 -1.063092 -1.493280 -0.061356 0.662758 -0.049706 10.830662 8.553241 4.417706 0.264605 3.233831 0.935172 4.900897 -6.050131 -6.435170 -0.027446 -0.506838 -0.024732
6.668381 88.852824 -21.622150 -148.373368 -3.878509 1.694913 -3.054284 6.852362 2.848068 -1.800197 3.909916 1.385718 -2.236697 4.893963 1.713847 -1.800197 3.909916 1.385718 4.191463 19.345419 -3.764567 8.809440 0.551276 -8.159726 13.152903 -6.660036 -11.471015 27.047260 -38.097621 39.546725 7.132349 27.957159 -4.153574 17.445207 3.179785 -2.970237 -14.906626 -6.396068 -0.709176 -26.149795 -46.661042 -62.141115 -9.836775 38.674065 8.270084 -9.024402 -0.019866 26.386680 -1.735765 0.366785 -2.005267 0.200418 3.673556 1.658410 -3.251936 -1.028929 -1.519728 -0.056822 0.664480 -0.048043 10.833290 8.504767 4.418247 0.278037 3.221618 0.938005 4.891788 -6.020270 -6.458814 -0.030672 -0.513854 -0.026240
6.709741 88.853013 -21.635160 -148.379843 -3.830005 1.713984 -3.043038 6.858269 2.847373 -1.793711 3.913127 1.382379 -2.228611 4.897937 1.709727 -1.793711 3.913127 1.382379 4.193436 19.374780 -3.757813 8.808470 0.605106 -8.145407 13.154941 -6.640387 -11.484412 27.079768 -38.213484 39.523447 7.045808 27.962933 -4.214206 17.469387 3.186602 -3.010449 -14.924306 -6.376607 -0.690164 -26.196452 -46.759016 -62.076975 -9.784909 38.659873 8.316047 -9.029471 -0.019748 26.363037 -1.758274 0.334096 -1.998492 0.204183 3.623211 1.662466 -3.230526 -0.994902 -1.546834 -0.053893 0.666269 -0.046892 10.832877 8.453245 4.417635 0.291784 3.210198 0.942799 4.886959 -5.989473 -6.485230 -0.033054 -0.521085 -0.027314
6.751874 88.853163 -21.651192 -148.379811 -3.783156 1.732017 -3.034817 6.863062 2.845702 -1.789013 3.915437 1.379223 -2.222761 4.900793 1.705819 -1.789013 3.915438 1.379223 4.192147 19.404779 -3.751489 8.801636 0.659821 -8.130839 13.157286 -6.621569 -11.499420 27.096143 -38.324981 39.512977 6.978482 27.975305 -4.262575 17.498861 3.189642 -3.060434 -14.936459 -6.355128 -0.674444 -26.246339 -46.851903 -62.007698 -9.741550 38.644314 8.353817 -9.031953 -0.021074 26.332232 -1.782271 0.305258 -1.985108 0.209710 3.572435 1.663712 -3.230893 -0.962785 -1.574958 -0.052807 0.667683 -0.047105 10.830638 8.402065 4.416859 0.302653 3.201007 0.949377 4.891587 -5.959580 -6.513527 -0.034457 -0.527715 -0.027930
6.793918 88.853221 -21.670204 -148.373096 -3.740114 1.748502 -3.027543 6.867500 2.843311 -1.784845 3.917894 1.376249 -2.217573 4.903834 1.702134 -1.784845 3.917894 1.376249 4.185314 19.433459 -3.746210 8.785132 0.711629 -8.116636 13.154070 -6.604438 -11.514881 27.101061 -38.427534 39.503642 6.931792 27.990717 -4.294961 17.533965 3.188460 -3.113762 -14.947063 -6.335914 -0.657657 -26.297352 -46.937688 -61.940376 -9.707576 38.627793 8.384195 -9.032080 -0.018576 26.302582 -1.809175 0.281978 -1.971161 0.214857 3.523222 1.666682 -3.232166 -0.933804 -1.602735 -0.051174 0.668637 -0.048072 10.829149 8.354755 4.422148 0.312396 3.191704 0.955076 4.881733 -5.930796 -6.542882 -0.037016 -0.534945 -0.028660
6.835375 88.853131 -21.691818 -148.361657 -3.701379 1.763460 -3.019780 6.871611 2.839935 -1.780200 3.920648 1.372950 -2.211790 4.907245 1.698046 -1.780200 3.920648 1.372950 4.173069 19.460197 -3.740902 8.758934 0.759281 -8.100944 13.145976 -6.589273 -11.527210 27.102482 -38.511655 39.484114 6.904981 28.000757 -4.309694 17.572226 3.181867 -3.163646 -14.958595 -6.321712 -0.635860 -26.346549 -47.014642 -61.884752 -9.676609 38.612089 8.415253 -9.029475 -0.013623 26.276149 -1.836349 0.265480 -1.957256 0.218347 3.473965 1.670180 -3.229152 -0.907223 -1.628993 -0.049014 0.669473 -0.049111 10.830191 8.314563 4.434279 0.320625 3.177439 0.960801 4.850943 -5.901405 -6.573917 -0.040825 -0.542983 -0.029525
6.876195 88.852846 -21.715617 -148.345152 -3.666595 1.775379 -3.013865 6.874644 2.836827 -1.776557 3.923044 1.370104 -2.207258 4.910213 1.694515 -1.776557 3.923044 1.370104 4.158910 19.486896 -3.736462 8.729522 0.806758 -8.086275 13.137970 -6.574679 -11.537796 27.119048 -38.564463 39.446168 6.889922 27.987425 -4.315431 17.610460 3.172664 -3.205987 -14.967449 -6.311620 -0.612909 -26.390632 -47.082822 -61.844364 -9.647391 38.598247 8.449361 -9.022375 -0.007744 26.252983 -1.862184 0.255936 -1.940157 0.220298 3.423138 1.671965 -3.226887 -0.881733 -1.653100 -0.046676 0.669876 -0.050226 10.830887 8.280126 4.450161 0.328195 3.159504 0.968316 4.815368 -5.872400 -6.607007 -0.044569 -0.549767 -0.029792
6.916202 88.852356 -21.741064 -148.321827 -3.635448 1.784104 -3.011442 6.876215 2.834067 -1.774774 3.924606 1.368433 -2.205040 4.912151 1.692437 -1.774774 3.924606 1.368433 4.144790 19.515221 -3.733753 8.700575 0.857437 -8.074646 13.131492 -6.560807 -11.548255 27.159475 -38.580271 39.388293 6.879409 27.942332 -4.319223 17.648062 3.165475 -3.239522 -14.971562 -6.302463 -0.593178 -26.433859 -47.141978 -61.813588 -9.622093 38.585748 8.484311 -9.012898 -0.004514 26.236171 -1.889286 0.252345 -1.917574 0.220817 3.371368 1.673311 -3.238594 -0.857737 -1.678962 -0.044932 0.669596 -0.051150 10.828721 8.249693 4.468298 0.335709 3.139921 0.975691 4.783867 -5.844770 -6.638825 -0.048102 -0.554175 -0.030470
6.954950 88.851714 -21.768057 -148.292722 -3.610384 1.789914 -3.010361 6.877837 2.831303 -1.773625 3.926063 1.367563 -2.203608 4.913964 1.691356 -1.773625 3.926063 1.367563 4.129431 19.545084 -3.732003 8.669536 0.910940 -8.064272 13.124033 -6.549280 -11.557731 27.213339 -38.565662 39.317700 6.873439 27.877486 -4.320787 17.683309 3.155947 -3.269191 -14.978521 -6.292468 -0.575009 -26.475230 -47.194486 -61.787867 -9.599871 38.578397 8.519534 -9.005411 -0.005237 26.229933 -1.914856 0.257013 -1.891172 0.216266 3.319314 1.673763 -3.255686 -0.835489 -1.705727 -0.043376 0.668701 -0.051245 10.826048 8.225003 4.490129 0.340119 3.120509 0.981998 4.754369 -5.819385 -6.667912 -0.051706 -0.556929 -0.032494
6.992115 88.850968 -21.796396 -148.259439 -3.592537 1.793109 -3.008555 6.880890 2.828806 -1.772137 3.928321 1.367003 -2.201745 4.916778 1.690661 -1.772137 3.928321 1.367003 4.111297 19.575151 -3.730696 8.633571 0.964586 -8.053876 13.111664 -6.541861 -11.565366 27.268442 -38.533952 39.245277 6.872713 27.808284 -4.323447 17.714906 3.141861 -3.298278 -14.994942 -6.281376 -0.555247 -26.513059 -47.242427 -61.760584 -9.584251 38.578351 8.549513 -9.003094 -0.009105 26.235229 -1.935456 0.270576 -1.863994 0.203981 3.268238 1.672349 -3.262961 -0.815181 -1.729713 -0.041174 0.667315 -0.050575 10.824552 8.206894 4.517551 0.343293 3.102512 0.988152 4.714459 -5.796795 -6.696228 -0.055881 -0.559467 -0.035276
7.027711 88.850120 -21.825324 -148.224402 -3.578695 1.794429 -3.006661 6.884907 2.827156 -1.770717 3.931137 1.366876 -2.199962 4.920293 1.690505 -1.770717 3.931137 1.366876 4.091635 19.604803 -3.731000 8.595349 1.017483 -8.046014 13.097332 -6.537084 -11.574330 27.319675 -38.498253 39.180819 6.872853 27.741114 -4.334201 17.747796 3.126615 -3.324996 -15.012133 -6.269654 -0.536799 -26.556025 -47.285065 -61.723780 -9.578815 38.580703 8.569485 -9.005904 -0.013907 26.247714 -1.950050 0.288285 -1.835370 0.186898 3.219493 1.670591 -3.271691 -0.796905 -1.753328 -0.039074 0.665540 -0.049437 10.825815 8.192148 4.548835 0.347151 3.086197 0.995237 4.661995 -5.776779 -6.724199 -0.060618 -0.562088 -0.038748
7.061896 88.849161 -21.854341 -148.188562 -3.566201 1.793406 -3.005417 6.888922 2.826589 -1.769873 3.933620 1.367071 -2.198897 4.923394 1.690749 -1.769873 3.933620 1.367071 4.072727 19.634488 -3.732655 8.558911 1.070664 -8.040849 13.086443 -6.529931 -11.585142 27.359566 -38.469634 39.129571 6.872819 27.680511 -4.352001 17.783771 3.112081 -3.347694 -15.023524 -6.256097 -0.522731 -26.613280 -47.323299 -61.670536 -9.581579 38.581215 8.576768 -9.008336 -0.020712 26.259900 -1.959254 0.307103 -1.805560 0.169436 3.172927 1.667712 -3.279155 -0.779817 -1.775145 -0.036547 0.663518 -0.047618 10.830442 8.176787 4.580134 0.348301 3.073607 1.002981 4.618724 -5.760181 -6.750770 -0.064291 -0.562853 -0.042148
